 <svg version="1.0" xmlns="http://www.w3.org/2000/svg" width="50.000000pt" height="50.000000pt" viewBox="0 0 700.000000 700.000000" preserveAspectRatio="xMidYMid meet">
<metadata>
Created by potrace 1.12, written by Peter Selinger 2001-2015
</metadata>
<g transform="translate(0.000000,700.000000) scale(0.100000,-0.100000)" fill="#000000" stroke="none">
<path d="M2305 5743 c-11 -3 -51 -31 -88 -62 -71 -58 -153 -124 -272 -216
-270 -209 -397 -313 -408 -332 -13 -22 -1 -56 48 -135 25 -40 51 -82 58 -93 6
-11 22 -34 34 -52 13 -17 23 -34 23 -37 0 -6 37 -63 111 -174 16 -23 29 -45
29 -49 0 -3 11 -21 25 -39 14 -18 25 -35 25 -38 0 -4 24 -41 53 -84 28 -43 57
-87 64 -97 14 -24 191 -306 215 -343 9 -15 24 -41 33 -59 9 -18 23 -37 31 -44
33 -27 11 -46 -88 -80 -35 -12 -67 -25 -73 -29 -5 -4 -19 -10 -30 -13 -11 -3
-45 -15 -75 -27 -30 -11 -75 -28 -100 -37 -25 -8 -58 -21 -75 -28 -46 -19
-106 -41 -150 -55 -22 -7 -53 -18 -70 -25 -32 -13 -89 -35 -155 -60 -66 -25
-123 -47 -155 -60 -16 -7 -48 -18 -70 -25 -68 -21 -119 -41 -155 -60 -34 -18
-35 -19 -34 -77 4 -163 22 -472 29 -483 4 -7 11 -128 16 -269 4 -141 10 -287
13 -326 3 -38 8 -121 10 -184 6 -125 14 -145 67 -156 16 -4 31 -11 34 -16 4
-5 16 -9 28 -9 12 0 42 -6 67 -14 25 -8 74 -22 110 -32 36 -9 88 -23 115 -31
28 -8 66 -18 85 -23 40 -10 132 -35 205 -55 47 -13 115 -31 210 -57 22 -5 58
-16 80 -24 23 -8 53 -14 68 -14 16 0 38 -5 50 -12 12 -6 38 -15 57 -19 19 -4
60 -15 90 -24 30 -9 73 -20 95 -24 23 -4 47 -11 55 -16 8 -5 32 -12 55 -16 22
-4 65 -15 95 -24 30 -9 91 -25 135 -36 90 -22 176 -45 220 -61 28 -9 54 -16
143 -37 88 -21 139 -34 162 -44 14 -5 41 -13 60 -18 92 -21 139 -35 146 -42 4
-4 16 -7 27 -7 11 0 45 -7 76 -16 54 -15 86 -24 216 -59 33 -9 69 -20 80 -24
61 -24 126 -41 153 -41 26 0 85 23 102 40 3 3 25 15 50 28 25 13 59 31 75 41
17 10 77 45 135 78 58 34 121 70 140 82 19 11 44 25 55 31 11 5 43 23 70 40
28 16 59 34 70 39 11 5 56 30 99 56 44 26 89 51 100 56 12 5 35 18 51 29 17
11 39 24 50 30 11 5 43 23 70 40 28 16 59 34 70 40 11 5 43 23 70 40 28 16 59
34 70 39 11 5 29 18 39 30 18 20 19 34 12 273 -27 1039 -27 1033 -7 1080 12
29 38 59 82 93 164 130 337 268 369 294 19 16 81 66 137 110 64 51 105 91 109
106 6 23 -1 40 -74 180 -21 41 -63 134 -88 195 -8 19 -19 43 -24 52 -6 10 -10
23 -10 30 0 6 -20 52 -44 102 -24 50 -55 118 -70 151 -15 33 -31 67 -37 75 -5
8 -12 22 -15 30 -22 56 -62 143 -138 302 -31 65 -56 120 -56 123 0 14 -95 204
-116 232 -20 27 -33 33 -91 42 -127 20 -218 33 -294 41 -41 5 -88 14 -103 20
-15 5 -51 10 -80 10 -28 0 -78 7 -109 15 -32 8 -78 15 -102 15 -24 0 -55 4
-68 9 -14 6 -54 12 -89 15 -34 3 -83 10 -108 15 -63 14 -171 31 -260 40 -86
10 -202 28 -275 42 -52 11 -135 22 -288 39 -48 5 -93 13 -100 17 -7 4 -43 11
-82 14 -88 7 -239 28 -285 39 -33 8 -103 18 -292 39 -42 5 -81 12 -87 15 -6 4
-43 11 -83 16 -40 5 -120 16 -178 25 -107 15 -140 16 -175 8z m175 -63 c50
-10 176 -27 292 -40 42 -4 82 -11 89 -15 7 -5 49 -12 93 -16 45 -4 124 -15
176 -24 52 -9 135 -21 185 -26 49 -5 94 -14 99 -19 6 -6 36 -10 67 -10 32 0
70 -5 86 -11 15 -6 69 -15 118 -20 50 -5 133 -16 185 -24 52 -8 131 -19 175
-25 44 -5 96 -14 115 -20 19 -5 56 -10 81 -10 25 0 66 -6 90 -13 24 -7 71 -15
103 -16 32 -1 70 -7 83 -12 13 -5 46 -9 72 -9 26 0 73 -7 104 -15 32 -8 81
-15 108 -15 28 0 59 -5 71 -11 11 -6 54 -13 96 -16 43 -2 89 -9 104 -15 15 -5
64 -14 110 -19 46 -6 105 -12 131 -15 49 -6 65 -21 50 -47 -4 -8 -42 -43 -83
-78 -41 -35 -77 -67 -80 -70 -3 -3 -32 -28 -65 -54 -33 -27 -64 -54 -70 -60
-5 -6 -37 -34 -70 -61 -33 -27 -78 -65 -100 -85 -22 -20 -56 -49 -75 -65 -65
-51 -110 -98 -110 -113 0 -8 19 -54 41 -101 89 -183 162 -325 170 -335 5 -5 9
-19 9 -31 0 -13 4 -25 9 -28 10 -6 129 -250 155 -316 3 -8 10 -22 15 -30 5 -8
12 -22 15 -30 3 -8 10 -22 15 -30 5 -8 13 -26 19 -40 16 -40 71 -158 114 -247
61 -126 57 -133 -102 -197 -8 -3 -22 -10 -30 -14 -8 -5 -31 -16 -50 -25 -19
-8 -71 -32 -115 -52 -87 -41 -143 -66 -220 -100 -95 -42 -266 -121 -370 -170
-63 -30 -109 -50 -200 -90 -129 -56 -135 -66 -135 -232 0 -65 5 -163 11 -218
6 -55 15 -226 20 -380 5 -154 11 -300 14 -325 3 -25 8 -126 11 -225 7 -226 12
-220 -136 -179 -30 9 -76 22 -101 30 -26 8 -56 14 -67 14 -12 0 -31 4 -44 9
-13 4 -50 16 -83 25 -33 9 -81 24 -106 32 -26 7 -57 14 -70 14 -13 0 -33 7
-43 15 -11 8 -30 15 -44 15 -13 0 -47 7 -75 16 -29 8 -70 20 -92 25 -22 6 -53
15 -70 21 -16 5 -48 14 -70 18 -62 13 -128 32 -147 41 -9 5 -36 12 -60 15 -24
4 -47 10 -53 14 -5 4 -26 10 -45 13 -34 6 -198 49 -310 82 -30 9 -71 19 -90
22 -19 2 -49 11 -67 19 -17 8 -40 14 -51 14 -11 0 -33 7 -48 15 -16 8 -43 15
-61 15 -17 0 -35 4 -38 10 -3 5 -20 10 -36 10 -17 0 -40 5 -52 12 -12 6 -38
15 -57 19 -57 11 -133 31 -155 40 -23 10 -91 27 -150 38 -22 4 -50 13 -62 19
-12 7 -32 12 -44 12 -11 0 -42 7 -68 15 -25 8 -73 21 -106 30 -33 9 -70 21
-83 26 -13 5 -31 9 -41 9 -49 0 -80 81 -81 215 -1 44 -5 114 -11 155 -5 41
-14 170 -19 285 -6 116 -12 228 -15 250 -3 22 -8 133 -11 247 l-5 207 25 22
c23 20 45 31 146 71 14 6 39 16 55 24 17 7 42 16 58 20 15 3 30 10 33 15 3 5
14 9 24 9 10 0 33 8 52 17 54 27 62 30 96 37 17 4 34 12 37 17 4 5 16 9 28 9
12 0 31 7 41 15 11 8 29 15 40 15 12 0 30 7 40 15 11 8 30 15 43 15 13 0 23 5
23 10 0 6 8 10 18 10 9 0 30 7 46 15 15 8 36 15 45 15 10 0 26 7 37 15 10 8
28 15 39 15 12 0 25 4 30 9 6 5 39 19 75 31 129 45 145 52 155 61 5 5 18 9 30
9 27 0 45 18 45 45 0 11 -24 57 -54 102 -30 46 -57 88 -60 95 -3 7 -14 25 -24
39 -9 15 -53 84 -97 154 -44 70 -87 137 -95 150 -8 13 -51 80 -95 150 -44 70
-87 137 -95 150 -8 13 -44 70 -79 127 -36 56 -67 105 -71 108 -4 3 -15 21 -26
40 -10 19 -31 52 -46 74 -42 59 -37 83 25 133 126 102 227 182 287 228 36 28
72 57 81 65 9 8 34 29 55 46 236 191 230 187 284 179 25 -3 65 -10 90 -15z"></path>
<path d="M1840 5006 c0 -9 11 -34 25 -56 14 -22 25 -44 25 -49 0 -5 6 -16 13
-23 6 -7 21 -29 31 -48 11 -19 22 -37 26 -40 3 -3 28 -41 55 -85 27 -44 59
-94 72 -111 13 -17 23 -33 23 -37 0 -3 25 -42 55 -87 30 -45 55 -85 55 -90 0
-5 6 -15 13 -22 18 -20 37 -50 43 -70 4 -10 10 -18 15 -18 5 0 13 -10 18 -22
5 -13 25 -47 45 -77 20 -29 36 -55 36 -58 0 -2 14 -24 30 -49 35 -50 63 -57
101 -23 13 12 40 33 59 48 19 14 58 47 85 72 28 26 84 75 125 110 41 35 84 72
94 81 49 45 101 60 193 55 81 -3 115 -8 255 -38 51 -11 127 -25 225 -39 35 -5
72 -14 82 -20 11 -5 43 -10 71 -10 28 0 60 -5 71 -10 10 -6 47 -15 82 -20 34
-5 100 -17 147 -25 47 -9 112 -20 145 -25 33 -5 73 -13 88 -19 16 -6 50 -11
76 -11 26 0 61 -4 77 -10 32 -11 117 -26 239 -41 44 -6 84 -14 89 -20 10 -9
76 -13 76 -5 0 8 -112 221 -121 231 -5 5 -9 17 -9 26 0 9 -7 22 -15 29 -8 7
-15 21 -15 31 0 11 -4 19 -9 19 -5 0 -14 13 -19 30 -14 40 -59 80 -89 80 -13
0 -34 5 -46 12 -12 6 -51 15 -87 19 -138 16 -236 31 -252 40 -9 5 -36 9 -60 9
-24 1 -61 7 -83 15 -22 8 -59 15 -83 15 -24 0 -52 4 -62 10 -10 5 -53 14 -94
20 -42 5 -110 15 -152 20 -41 6 -84 15 -94 20 -10 6 -36 10 -57 10 -21 0 -56
5 -78 11 -22 6 -67 15 -100 19 -94 12 -197 31 -231 41 -17 5 -49 9 -71 9 -22
0 -60 7 -83 15 -23 8 -62 15 -86 15 -23 0 -55 5 -71 11 -15 7 -59 15 -98 20
-38 4 -108 15 -155 24 -47 8 -116 19 -155 24 -38 5 -83 14 -98 20 -16 6 -46
11 -67 11 -21 0 -51 5 -67 11 -15 6 -64 14 -108 19 -44 5 -95 12 -112 16 -27
5 -33 3 -33 -10z"></path>
<path d="M2550 3907 c0 -34 19 -47 70 -47 26 0 50 -3 54 -7 7 -8 82 -22 223
-43 35 -5 72 -14 82 -20 11 -5 38 -10 61 -10 23 0 50 -5 61 -11 11 -6 50 -14
87 -19 37 -5 101 -16 142 -24 41 -9 103 -20 138 -26 35 -6 72 -15 82 -20 10
-6 34 -10 54 -10 19 0 47 -5 63 -12 15 -6 55 -15 88 -19 109 -14 186 -29 205
-39 10 -5 34 -10 54 -10 19 0 47 -5 63 -11 15 -6 55 -14 88 -20 152 -23 214
-35 221 -41 4 -5 22 -8 39 -8 18 0 54 -7 81 -15 27 -8 65 -15 85 -15 20 0 53
-7 72 -15 20 -8 56 -15 80 -15 24 0 47 -3 51 -7 8 -9 110 -28 224 -43 76 -10
112 -3 112 24 0 19 -44 35 -126 46 -148 20 -191 28 -212 39 -11 6 -39 11 -61
11 -22 0 -52 5 -68 11 -15 6 -53 15 -83 20 -30 4 -89 15 -130 23 -41 9 -101
20 -132 25 -32 5 -63 13 -70 17 -7 5 -35 12 -63 16 -63 9 -159 27 -205 38 -37
9 -130 26 -215 40 -27 4 -63 13 -78 19 -16 6 -49 11 -73 11 -25 0 -53 4 -63
10 -10 5 -45 14 -77 19 -32 6 -93 18 -134 26 -41 9 -102 20 -135 24 -33 4 -73
13 -88 19 -16 7 -46 12 -68 12 -22 0 -47 4 -57 9 -17 9 -91 23 -216 42 -38 5
-77 14 -87 19 -10 6 -45 10 -78 10 -57 0 -61 -2 -61 -23z"></path>
<path d="M2486 3752 c-3 -5 -18 -12 -33 -15 -30 -5 -87 -24 -115 -38 -10 -5
-23 -9 -30 -9 -7 0 -24 -6 -38 -13 -14 -7 -50 -21 -80 -31 -30 -10 -63 -23
-74 -28 -10 -5 -45 -18 -79 -29 -33 -10 -65 -23 -71 -28 -6 -4 -22 -11 -36
-14 -25 -5 -76 -22 -115 -38 -60 -25 -227 -86 -260 -96 -45 -12 -106 -46 -102
-57 2 -6 19 -12 38 -14 19 -2 38 -8 44 -13 5 -5 23 -9 40 -9 16 0 50 -6 75
-14 41 -13 73 -20 200 -46 25 -5 77 -16 115 -25 39 -9 95 -20 126 -24 30 -5
65 -13 77 -20 11 -6 35 -11 52 -11 17 0 40 -5 50 -10 10 -6 45 -14 77 -19 32
-5 87 -17 123 -26 36 -9 91 -20 123 -25 32 -6 67 -14 77 -20 10 -5 31 -10 45
-10 14 0 35 -5 45 -10 10 -6 45 -14 77 -19 32 -5 87 -17 123 -26 36 -9 91 -20
123 -25 33 -6 64 -13 70 -17 7 -4 32 -10 57 -14 25 -4 63 -12 85 -18 22 -5 76
-18 120 -27 44 -9 89 -20 100 -25 11 -4 38 -10 60 -13 39 -4 77 -13 183 -43
29 -8 90 -14 135 -14 80 -1 87 1 203 56 65 31 133 62 149 70 17 7 59 26 95 43
36 16 81 36 100 45 84 37 159 71 207 93 28 13 58 24 66 24 8 0 20 7 27 15 7 8
18 15 25 15 8 0 26 7 42 15 15 8 59 28 96 46 37 17 66 36 64 43 -2 6 -32 14
-68 17 -35 4 -77 11 -92 18 -16 6 -42 11 -58 11 -17 0 -39 5 -50 10 -10 6 -47
15 -82 20 -34 5 -96 16 -137 25 -41 9 -100 19 -132 24 -31 5 -62 12 -70 17 -7
5 -38 12 -68 16 -30 3 -91 14 -135 23 -44 8 -107 20 -140 25 -32 6 -64 15 -69
20 -6 6 -29 10 -52 10 -24 0 -55 5 -71 12 -15 6 -53 15 -83 19 -30 4 -91 15
-135 24 -44 9 -105 20 -136 24 -30 5 -65 13 -77 20 -11 6 -39 11 -62 11 -23 0
-50 5 -60 10 -10 6 -45 14 -77 19 -32 6 -98 17 -148 26 -49 9 -115 20 -145 23
-30 4 -62 12 -70 17 -32 20 -254 43 -264 27z m237 -67 c20 -8 53 -15 72 -15
20 0 45 -5 55 -10 18 -10 71 -20 207 -40 35 -5 72 -14 82 -20 11 -5 30 -10 42
-10 27 0 79 -46 79 -70 0 -8 7 -26 16 -38 8 -12 14 -32 12 -45 -3 -20 -10 -22
-65 -25 -38 -2 -66 -8 -73 -17 -16 -19 -86 -19 -142 -1 -24 8 -67 16 -97 20
-29 3 -58 9 -65 15 -6 5 -29 11 -51 14 -22 3 -71 13 -110 21 -38 8 -92 20
-120 26 -73 15 -83 19 -89 37 -7 18 54 117 93 150 31 27 101 30 154 8z m-503
-152 c36 -8 86 -18 112 -22 25 -4 52 -12 60 -18 7 -6 33 -13 58 -16 40 -5 91
-16 215 -46 22 -5 67 -15 100 -21 33 -7 74 -17 90 -22 17 -6 53 -14 80 -19 73
-11 149 -30 158 -39 15 -14 -3 -48 -28 -54 -14 -4 -41 0 -61 9 -20 8 -49 15
-64 15 -15 0 -44 7 -63 15 -20 8 -49 15 -64 15 -15 0 -46 7 -68 15 -22 8 -57
14 -77 15 -20 0 -40 5 -43 10 -3 6 -20 10 -36 10 -16 0 -46 7 -66 15 -19 8
-47 15 -61 15 -14 0 -48 6 -76 14 -80 22 -148 38 -181 43 -16 2 -47 9 -67 15
-32 9 -38 16 -38 38 0 34 9 43 35 35 11 -4 49 -13 85 -22z m-168 -64 c11 -6
44 -15 72 -20 54 -9 139 -26 196 -39 69 -16 156 -33 195 -37 22 -3 54 -16 71
-29 32 -23 74 -96 74 -127 0 -9 5 -19 10 -22 6 -3 10 -17 10 -31 0 -20 -5 -24
-28 -24 -16 0 -32 3 -36 8 -8 7 -90 26 -187 42 -31 5 -68 14 -83 20 -15 5 -41
10 -57 10 -17 0 -39 5 -50 10 -10 6 -47 15 -82 20 -34 5 -93 16 -132 25 -38 9
-89 19 -113 22 -24 3 -46 11 -49 19 -6 16 15 74 27 74 4 0 12 11 18 25 7 15
30 34 54 45 51 22 63 23 90 9z m1743 -8 c28 -7 65 -17 82 -22 33 -10 96 -23
189 -38 28 -5 61 -14 72 -20 11 -6 35 -11 52 -11 63 0 137 -68 174 -160 10
-25 26 -59 34 -77 15 -29 15 -33 -1 -51 -10 -10 -36 -24 -58 -31 -41 -12 -64
-10 -154 14 -27 7 -86 21 -130 31 -83 18 -124 47 -125 87 -1 54 -89 117 -163
117 -25 0 -61 7 -80 15 -20 8 -50 15 -67 15 -18 0 -33 6 -36 15 -8 21 40 91
79 116 33 20 47 20 132 0z m-435 -116 c36 -9 85 -20 110 -24 25 -4 61 -12 80
-18 56 -18 122 -34 170 -42 25 -4 59 -14 75 -23 39 -21 95 -72 95 -86 0 -6 6
-26 14 -44 8 -18 22 -51 31 -73 25 -57 44 -75 79 -75 48 0 62 -13 48 -44 -11
-25 -16 -26 -86 -26 -41 0 -87 5 -103 11 -15 7 -48 15 -73 19 -25 4 -67 13
-95 20 -126 31 -213 50 -272 60 -28 4 -58 12 -65 16 -7 5 -38 12 -68 16 -30 4
-84 14 -120 23 -36 9 -87 20 -115 24 -27 4 -57 11 -65 16 -8 5 -37 13 -65 16
-68 10 -139 31 -159 48 -9 7 -16 26 -16 42 0 26 3 29 34 29 19 0 38 -4 41 -10
3 -5 21 -10 39 -10 19 0 53 -7 76 -15 57 -20 124 -20 141 1 15 18 24 33 58 94
46 86 69 91 211 55z"></path>
</g>
</svg>